<mxfile host="65bd71144e">
    <diagram name="ページ1" id="pa2pwAW6virNKL9udwBQ">
        <mxGraphModel dx="1137" dy="779" grid="1" gridSize="10" guides="1" tooltips="1" connect="1" arrows="1" fold="1" page="1" pageScale="1" pageWidth="827" pageHeight="1169" math="0" shadow="0">
            <root>
                <mxCell id="0"/>
                <mxCell id="1" parent="0"/>
                <mxCell id="B75yLUwn3lLQmJlEsTOT-1" value="" style="rounded=0;whiteSpace=wrap;html=1;" parent="1" vertex="1">
                    <mxGeometry x="250" y="120" width="170" height="380" as="geometry"/>
                </mxCell>
                <mxCell id="B75yLUwn3lLQmJlEsTOT-2" value="" style="rounded=0;whiteSpace=wrap;html=1;" parent="1" vertex="1">
                    <mxGeometry x="270" y="140" width="130" height="100" as="geometry"/>
                </mxCell>
                <mxCell id="B75yLUwn3lLQmJlEsTOT-3" value="" style="rounded=0;whiteSpace=wrap;html=1;" parent="1" vertex="1">
                    <mxGeometry x="270" y="260" width="130" height="100" as="geometry"/>
                </mxCell>
                <mxCell id="B75yLUwn3lLQmJlEsTOT-4" value="" style="rounded=0;whiteSpace=wrap;html=1;" parent="1" vertex="1">
                    <mxGeometry x="270" y="380" width="130" height="100" as="geometry"/>
                </mxCell>
                <mxCell id="B75yLUwn3lLQmJlEsTOT-5" value="Hub VNET" style="text;html=1;align=center;verticalAlign=middle;whiteSpace=wrap;rounded=0;" parent="1" vertex="1">
                    <mxGeometry x="250" y="90" width="60" height="30" as="geometry"/>
                </mxCell>
                <mxCell id="B75yLUwn3lLQmJlEsTOT-6" value="" style="image;sketch=0;aspect=fixed;html=1;points=[];align=center;fontSize=12;image=img/lib/mscae/Azure_Firewall.svg;" parent="1" vertex="1">
                    <mxGeometry x="310" y="180" width="50" height="50" as="geometry"/>
                </mxCell>
                <mxCell id="B75yLUwn3lLQmJlEsTOT-7" value="Azure Firewall" style="text;html=1;align=center;verticalAlign=middle;whiteSpace=wrap;rounded=0;" parent="1" vertex="1">
                    <mxGeometry x="290" y="150" width="90" height="30" as="geometry"/>
                </mxCell>
                <mxCell id="B75yLUwn3lLQmJlEsTOT-8" value="" style="image;sketch=0;aspect=fixed;html=1;points=[];align=center;fontSize=12;image=img/lib/mscae/VPN_Gateway.svg;" parent="1" vertex="1">
                    <mxGeometry x="312.5" y="300" width="45" height="50" as="geometry"/>
                </mxCell>
                <mxCell id="B75yLUwn3lLQmJlEsTOT-9" value="VPN Gateway" style="text;html=1;align=center;verticalAlign=middle;whiteSpace=wrap;rounded=0;" parent="1" vertex="1">
                    <mxGeometry x="290" y="270" width="90" height="30" as="geometry"/>
                </mxCell>
                <mxCell id="B75yLUwn3lLQmJlEsTOT-10" value="" style="image;aspect=fixed;html=1;points=[];align=center;fontSize=12;image=img/lib/azure2/networking/Bastions.svg;" parent="1" vertex="1">
                    <mxGeometry x="314.53" y="420" width="40.94" height="48" as="geometry"/>
                </mxCell>
                <mxCell id="B75yLUwn3lLQmJlEsTOT-11" value="Bastion" style="text;html=1;align=center;verticalAlign=middle;whiteSpace=wrap;rounded=0;" parent="1" vertex="1">
                    <mxGeometry x="290" y="390" width="90" height="30" as="geometry"/>
                </mxCell>
                <mxCell id="B75yLUwn3lLQmJlEsTOT-14" value="" style="rounded=0;whiteSpace=wrap;html=1;" parent="1" vertex="1">
                    <mxGeometry x="500" y="120" width="310" height="140" as="geometry"/>
                </mxCell>
                <mxCell id="B75yLUwn3lLQmJlEsTOT-15" value="Spoke VNET" style="text;html=1;align=center;verticalAlign=middle;whiteSpace=wrap;rounded=0;" parent="1" vertex="1">
                    <mxGeometry x="500" y="90" width="80" height="30" as="geometry"/>
                </mxCell>
                <mxCell id="B75yLUwn3lLQmJlEsTOT-16" value="" style="rounded=0;whiteSpace=wrap;html=1;" parent="1" vertex="1">
                    <mxGeometry x="520" y="140" width="130" height="100" as="geometry"/>
                </mxCell>
                <mxCell id="B75yLUwn3lLQmJlEsTOT-17" value="" style="rounded=0;whiteSpace=wrap;html=1;" parent="1" vertex="1">
                    <mxGeometry x="660" y="140" width="130" height="100" as="geometry"/>
                </mxCell>
                <mxCell id="B75yLUwn3lLQmJlEsTOT-18" value="" style="image;sketch=0;aspect=fixed;html=1;points=[];align=center;fontSize=12;image=img/lib/mscae/Virtual_Machine_2.svg;" parent="1" vertex="1">
                    <mxGeometry x="560" y="172" width="50" height="46" as="geometry"/>
                </mxCell>
                <mxCell id="B75yLUwn3lLQmJlEsTOT-20" value="" style="image;aspect=fixed;html=1;points=[];align=center;fontSize=12;image=img/lib/azure2/networking/Virtual_Networks.svg;" parent="1" vertex="1">
                    <mxGeometry x="314.53" y="95" width="33.5" height="20" as="geometry"/>
                </mxCell>
                <mxCell id="B75yLUwn3lLQmJlEsTOT-21" value="" style="image;aspect=fixed;html=1;points=[];align=center;fontSize=12;image=img/lib/azure2/networking/Virtual_Networks.svg;" parent="1" vertex="1">
                    <mxGeometry x="580" y="95" width="33.5" height="20" as="geometry"/>
                </mxCell>
                <mxCell id="B75yLUwn3lLQmJlEsTOT-22" value="" style="image;aspect=fixed;html=1;points=[];align=center;fontSize=12;image=img/lib/azure2/networking/Network_Security_Groups.svg;" parent="1" vertex="1">
                    <mxGeometry x="529.09" y="145.5" width="21.82" height="26.5" as="geometry"/>
                </mxCell>
                <mxCell id="B75yLUwn3lLQmJlEsTOT-23" value="" style="image;aspect=fixed;html=1;points=[];align=center;fontSize=12;image=img/lib/azure2/networking/Network_Security_Groups.svg;" parent="1" vertex="1">
                    <mxGeometry x="670" y="145.5" width="21.82" height="26.5" as="geometry"/>
                </mxCell>
                <mxCell id="B75yLUwn3lLQmJlEsTOT-24" value="" style="image;aspect=fixed;html=1;points=[];align=center;fontSize=12;image=img/lib/azure2/databases/SQL_Database.svg;" parent="1" vertex="1">
                    <mxGeometry x="704.75" y="168" width="40.5" height="54" as="geometry"/>
                </mxCell>
                <mxCell id="B75yLUwn3lLQmJlEsTOT-25" value="" style="rounded=0;whiteSpace=wrap;html=1;" parent="1" vertex="1">
                    <mxGeometry x="500" y="310" width="310" height="140" as="geometry"/>
                </mxCell>
                <mxCell id="B75yLUwn3lLQmJlEsTOT-26" value="Spoke VNET" style="text;html=1;align=center;verticalAlign=middle;whiteSpace=wrap;rounded=0;" parent="1" vertex="1">
                    <mxGeometry x="500" y="280" width="80" height="30" as="geometry"/>
                </mxCell>
                <mxCell id="B75yLUwn3lLQmJlEsTOT-27" value="" style="rounded=0;whiteSpace=wrap;html=1;" parent="1" vertex="1">
                    <mxGeometry x="520" y="330" width="270" height="100" as="geometry"/>
                </mxCell>
                <mxCell id="B75yLUwn3lLQmJlEsTOT-29" value="" style="image;sketch=0;aspect=fixed;html=1;points=[];align=center;fontSize=12;image=img/lib/mscae/Virtual_Machine_2.svg;" parent="1" vertex="1">
                    <mxGeometry x="560" y="362" width="50" height="46" as="geometry"/>
                </mxCell>
                <mxCell id="B75yLUwn3lLQmJlEsTOT-30" value="" style="image;aspect=fixed;html=1;points=[];align=center;fontSize=12;image=img/lib/azure2/networking/Virtual_Networks.svg;" parent="1" vertex="1">
                    <mxGeometry x="580" y="285" width="33.5" height="20" as="geometry"/>
                </mxCell>
                <mxCell id="B75yLUwn3lLQmJlEsTOT-31" value="" style="image;aspect=fixed;html=1;points=[];align=center;fontSize=12;image=img/lib/azure2/networking/Network_Security_Groups.svg;" parent="1" vertex="1">
                    <mxGeometry x="529.09" y="335.5" width="21.82" height="26.5" as="geometry"/>
                </mxCell>
                <mxCell id="B75yLUwn3lLQmJlEsTOT-34" value="" style="image;sketch=0;aspect=fixed;html=1;points=[];align=center;fontSize=12;image=img/lib/mscae/Virtual_Machine_2.svg;" parent="1" vertex="1">
                    <mxGeometry x="630" y="362" width="50" height="46" as="geometry"/>
                </mxCell>
                <mxCell id="B75yLUwn3lLQmJlEsTOT-35" value="" style="image;sketch=0;aspect=fixed;html=1;points=[];align=center;fontSize=12;image=img/lib/mscae/Virtual_Machine_2.svg;" parent="1" vertex="1">
                    <mxGeometry x="700" y="362" width="50" height="46" as="geometry"/>
                </mxCell>
                <mxCell id="B75yLUwn3lLQmJlEsTOT-36" value="" style="endArrow=classic;startArrow=classic;html=1;rounded=0;exitX=1;exitY=0.5;exitDx=0;exitDy=0;entryX=0;entryY=0.5;entryDx=0;entryDy=0;" parent="1" source="B75yLUwn3lLQmJlEsTOT-1" target="B75yLUwn3lLQmJlEsTOT-14" edge="1">
                    <mxGeometry width="50" height="50" relative="1" as="geometry">
                        <mxPoint x="440" y="290" as="sourcePoint"/>
                        <mxPoint x="490" y="240" as="targetPoint"/>
                    </mxGeometry>
                </mxCell>
                <mxCell id="B75yLUwn3lLQmJlEsTOT-39" value="" style="endArrow=classic;startArrow=classic;html=1;rounded=0;entryX=0;entryY=0.5;entryDx=0;entryDy=0;" parent="1" target="B75yLUwn3lLQmJlEsTOT-25" edge="1">
                    <mxGeometry width="50" height="50" relative="1" as="geometry">
                        <mxPoint x="420" y="310" as="sourcePoint"/>
                        <mxPoint x="510" y="200" as="targetPoint"/>
                    </mxGeometry>
                </mxCell>
                <mxCell id="B75yLUwn3lLQmJlEsTOT-41" value="Peering" style="text;html=1;align=center;verticalAlign=middle;whiteSpace=wrap;rounded=0;" parent="1" vertex="1">
                    <mxGeometry x="410" y="210" width="80" height="30" as="geometry"/>
                </mxCell>
                <mxCell id="B75yLUwn3lLQmJlEsTOT-43" value="Peering" style="text;html=1;align=center;verticalAlign=middle;whiteSpace=wrap;rounded=0;" parent="1" vertex="1">
                    <mxGeometry x="410" y="350" width="80" height="30" as="geometry"/>
                </mxCell>
                <mxCell id="B75yLUwn3lLQmJlEsTOT-45" value="" style="rounded=0;whiteSpace=wrap;html=1;" parent="1" vertex="1">
                    <mxGeometry x="60" y="235" width="120" height="150" as="geometry"/>
                </mxCell>
                <mxCell id="B75yLUwn3lLQmJlEsTOT-46" value="On-Premise" style="text;html=1;align=center;verticalAlign=middle;whiteSpace=wrap;rounded=0;" parent="1" vertex="1">
                    <mxGeometry x="75.27999999999997" y="235" width="89.44" height="30" as="geometry"/>
                </mxCell>
                <mxCell id="B75yLUwn3lLQmJlEsTOT-47" value="" style="endArrow=classic;startArrow=classic;html=1;rounded=0;exitX=1;exitY=0.5;exitDx=0;exitDy=0;entryX=0;entryY=0.5;entryDx=0;entryDy=0;" parent="1" source="B75yLUwn3lLQmJlEsTOT-45" target="B75yLUwn3lLQmJlEsTOT-1" edge="1">
                    <mxGeometry width="50" height="50" relative="1" as="geometry">
                        <mxPoint x="60" y="430" as="sourcePoint"/>
                        <mxPoint x="110" y="380" as="targetPoint"/>
                    </mxGeometry>
                </mxCell>
                <mxCell id="B75yLUwn3lLQmJlEsTOT-54" value="VPN&#10;Connection" style="sketch=0;outlineConnect=0;fontColor=#232F3E;gradientColor=none;strokeColor=#232F3E;fillColor=#ffffff;dashed=0;verticalLabelPosition=bottom;verticalAlign=top;align=center;html=1;fontSize=12;fontStyle=0;aspect=fixed;shape=mxgraph.aws4.resourceIcon;resIcon=mxgraph.aws4.vpn_connection;" parent="1" vertex="1">
                    <mxGeometry x="102.5" y="285" width="35" height="35" as="geometry"/>
                </mxCell>
                <mxCell id="B75yLUwn3lLQmJlEsTOT-55" value="" style="image;aspect=fixed;html=1;points=[];align=center;fontSize=12;image=img/lib/azure2/networking/Route_Tables.svg;" parent="1" vertex="1">
                    <mxGeometry x="517.88" y="203" width="33.03" height="32" as="geometry"/>
                </mxCell>
                <mxCell id="B75yLUwn3lLQmJlEsTOT-56" value="" style="image;aspect=fixed;html=1;points=[];align=center;fontSize=12;image=img/lib/azure2/networking/Route_Tables.svg;" parent="1" vertex="1">
                    <mxGeometry x="660" y="203" width="33.03" height="32" as="geometry"/>
                </mxCell>
                <mxCell id="B75yLUwn3lLQmJlEsTOT-57" value="" style="image;aspect=fixed;html=1;points=[];align=center;fontSize=12;image=img/lib/azure2/networking/Route_Tables.svg;" parent="1" vertex="1">
                    <mxGeometry x="523.49" y="388" width="33.03" height="32" as="geometry"/>
                </mxCell>
            </root>
        </mxGraphModel>
    </diagram>
</mxfile>
